<svg xmlns="http://www.w3.org/2000/svg" viewBox="0 0 24 24">
    <g>
        <g>
            <path style="fill:#dbe0e4;fill-opacity:1"
                  d="M11.66 8.26C11.37 8.17 6.98 8.22 6.01 8.22C5.48 8.22 4.61 8.26 4.13 8.22C4.13 8.72 4.13 11.21 4.13 15.7L11.66 15.7C11.66 11.24 11.66 8.76 11.66 8.26Z"
                  id="aaFCdnnd7"></path>
            <g>
                <path style="opacity:1;fill-opacity:0;stroke:#000000;stroke-width:1;stroke-opacity:0"
                      d="M11.66 8.26C11.37 8.17 6.98 8.22 6.01 8.22C5.48 8.22 4.61 8.26 4.13 8.22C4.13 8.72 4.13 11.21 4.13 15.7L11.66 15.7C11.66 11.24 11.66 8.76 11.66 8.26Z"
                      id="aaFCdnnd7"></path>
            </g>
        </g>
        <g>
            <path style="opacity:1;fill:#dbe0e4;fill-opacity:1"
                  d="M9.44 21.78C10.74 20.47 11.76 18.45 11.66 16.47C11.16 16.47 8.65 16.45 4.13 16.42L4.13 24C6.83 23.35 8.6 22.61 9.44 21.78Z"
                  id="fcU9a1UzH"></path>
            <g>
                <path style="opacity:1;fill-opacity:0;stroke:#000000;stroke-width:1;stroke-opacity:0"
                      d="M9.44 21.78C10.74 20.47 11.76 18.45 11.66 16.47C11.16 16.47 8.65 16.45 4.13 16.42L4.13 24C6.83 23.35 8.6 22.61 9.44 21.78Z"
                      id="fcU9a1UzH"></path>
            </g>
        </g>
        <g>
            <path style="opacity:1;fill:#0b73ba;fill-opacity:1"
                  d="M11.66 7.54C11.66 3.02 11.66 0.51 11.66 0.01C8.72 -0.13 5.96 1.89 4.8 4.4C4.32 5.47 4.18 6.24 4.08 7.54C5.09 7.54 7.62 7.54 11.66 7.54Z"
                  id="c2n1P7FWQh"></path>
            <g>
                <path style="opacity:1;fill-opacity:0;stroke:#000000;stroke-width:1;stroke-opacity:0"
                      d="M11.66 7.54C11.66 3.02 11.66 0.51 11.66 0.01C8.72 -0.13 5.96 1.89 4.8 4.4C4.32 5.47 4.18 6.24 4.08 7.54C5.09 7.54 7.62 7.54 11.66 7.54Z"
                      id="c2n1P7FWQh"></path>
            </g>
        </g>
        <g>
            <path style="opacity:1;fill:#dbe0e4;fill-opacity:1"
                  d="M19.92 7.54C19.87 4.36 17.99 1.85 15.48 0.64C14.7 0.3 13.35 -0.08 12.34 0.01C12.34 0.51 12.34 3.02 12.34 7.54C16.89 7.54 19.41 7.54 19.92 7.54Z"
                  id="a4VBnmAAo"></path>
            <g>
                <path style="opacity:1;fill-opacity:0;stroke:#000000;stroke-width:1;stroke-opacity:0"
                      d="M19.92 7.54C19.87 4.36 17.99 1.85 15.48 0.64C14.7 0.3 13.35 -0.08 12.34 0.01C12.34 0.51 12.34 3.02 12.34 7.54C16.89 7.54 19.41 7.54 19.92 7.54Z"
                      id="a4VBnmAAo"></path>
            </g>
        </g>
        <g>
            <path style="opacity:1;fill:#6fb63c;fill-opacity:1"
                  d="M19.2 11.35C19.49 10.73 20.06 9.04 19.87 8.22C19.37 8.22 16.86 8.22 12.34 8.22L12.34 15.74C16.2 14.46 18.49 12.99 19.2 11.35Z"
                  id="f1LP3BFA0u"></path>
            <g>
                <path style="opacity:1;fill-opacity:0;stroke:#000000;stroke-width:1;stroke-opacity:0"
                      d="M19.2 11.35C19.49 10.73 20.06 9.04 19.87 8.22C19.37 8.22 16.86 8.22 12.34 8.22L12.34 15.74C16.2 14.46 18.49 12.99 19.2 11.35Z"
                      id="f1LP3BFA0u"></path>
            </g>
        </g>
    </g>
</svg>